<svg width="33" height="32" viewBox="0 0 33 32" fill="none" xmlns="http://www.w3.org/2000/svg">
<g clip-path="url(#clip0_320_8271)">
<path d="M16.6671 5.73315C20.4456 5.73316 23.719 7.30615 26.2555 9.14065C28.794 10.9766 30.6572 13.119 31.6378 14.3722C32.3957 15.3408 32.3809 16.6735 31.6109 17.6271C30.6048 18.8729 28.6959 21.0146 26.1466 22.8517C23.6026 24.6851 20.3465 26.2682 16.6671 26.2682C12.9877 26.2682 9.73154 24.6851 7.18751 22.8517C4.63826 21.0146 2.72934 18.8729 1.72326 17.6271C0.953215 16.6735 0.938435 15.3408 1.69639 14.3722C2.67696 13.119 4.54012 10.9766 7.07864 9.14065C9.61512 7.30616 12.8885 5.73315 16.6671 5.73315ZM16.6671 7.65315C13.4308 7.65315 10.5463 9.00224 8.20383 10.6964C5.86346 12.3891 4.12669 14.3819 3.20851 15.5553C3.00383 15.8169 3.00567 16.1591 3.21701 16.4208C4.16375 17.5932 5.95052 19.5937 8.31008 21.2941C10.6749 22.9983 13.5408 24.3482 16.6671 24.3482C19.7933 24.3482 22.6593 22.9983 25.0241 21.2941C27.3836 19.5937 29.1704 17.5932 30.1171 16.4208C30.3285 16.1591 30.3303 15.8169 30.1256 15.5553C29.2075 14.382 27.4707 12.3891 25.1303 10.6964C22.7879 9.00224 19.9033 7.65316 16.6671 7.65315ZM16.6671 9.85665C20.0603 9.85666 22.8111 12.6074 22.8111 16.0007C22.8111 19.3939 20.0603 22.1446 16.6671 22.1447C13.2738 22.1447 10.5231 19.3939 10.5231 16.0007C10.5231 12.6074 13.2738 9.85665 16.6671 9.85665ZM16.6671 11.7767C14.3342 11.7767 12.4431 13.6678 12.4431 16.0007C12.4431 18.3335 14.3342 20.2247 16.6671 20.2247C18.9999 20.2246 20.8911 18.3335 20.8911 16.0007C20.8911 13.6678 18.9999 11.7767 16.6671 11.7767Z" fill="#171719"/>
</g>
<defs>
<clipPath id="clip0_320_8271">
<rect width="32" height="32" fill="white" transform="translate(0.666016)"/>
</clipPath>
</defs>
</svg>
