<svg width="32" height="32" viewBox="0 0 32 32" fill="none" xmlns="http://www.w3.org/2000/svg">
<path d="M22.1032 3.90405C23.5354 3.90406 24.8527 4.68832 25.5353 5.94743L28.2326 10.9228C28.9592 12.2632 28.839 13.904 27.9248 15.1242L18.8168 27.2811C17.4088 29.1603 14.5906 29.1603 13.1826 27.2811L4.07457 15.1242C3.16036 13.904 3.04017 12.2632 3.76682 10.9228L6.46413 5.94743C7.14672 4.68832 8.46396 3.90406 9.89619 3.90405H22.1032ZM16.9597 15.7177V26.4516C17.0777 26.3628 17.1859 26.2557 17.2802 26.1299L26.3157 14.0697L16.9597 15.7177ZM14.7192 26.1299C14.8134 26.2557 14.9217 26.3628 15.0397 26.4515V15.7177L5.68363 14.0697L14.7192 26.1299ZM14.5888 5.82405C14.5835 5.83762 14.5778 5.85117 14.5718 5.86462L11.3233 13.1136L15.9997 13.9372L20.7293 13.1042L17.4668 5.82405H14.5888ZM9.89619 5.82405C9.16834 5.82406 8.49889 6.22262 8.152 6.86249L5.45475 11.8379C5.41519 11.9108 5.38059 11.9856 5.35088 12.0616L9.37325 12.7701L12.486 5.82405H9.89619ZM22.6358 12.6635C22.6503 12.6959 22.6628 12.7287 22.6735 12.7617L26.6484 12.0616C26.6187 11.9856 26.5842 11.9108 26.5446 11.8379L23.8474 6.86249C23.5005 6.22262 22.831 5.82406 22.1032 5.82405H19.5708L22.6358 12.6635Z" fill="#171719"/>
</svg>
