<svg width="33" height="32" viewBox="0 0 33 32" fill="none" xmlns="http://www.w3.org/2000/svg">
<path d="M17.9818 18.4312C19.5471 18.4312 21.0264 19.1208 22.1003 20.3101C23.171 21.4959 23.7577 23.0851 23.7578 24.7241V28.0314C23.7577 28.5615 23.3283 28.991 22.7982 28.991C22.2681 28.991 21.8387 28.5615 21.8385 28.0314V24.7241C21.8385 23.5347 21.411 22.4108 20.6758 21.5965C19.9433 20.7854 18.971 20.3517 17.9818 20.3517H8.35026C7.36111 20.3517 6.39002 20.7855 5.65755 21.5965C4.92222 22.4108 4.49488 23.5346 4.49479 24.7241V28.0314C4.49465 28.5615 4.06396 28.991 3.53385 28.991C3.00392 28.9909 2.57436 28.5614 2.57422 28.0314V24.7241C2.57431 23.0851 3.16112 21.4959 4.23177 20.3101C5.30564 19.1208 6.78493 18.4312 8.35026 18.4312H17.9818ZM25.2995 18.6056C26.6496 18.9542 27.8462 19.7419 28.7005 20.8439C29.5545 21.9458 30.0184 23.3001 30.0195 24.6942V28.0015C30.0195 28.5315 29.5899 28.9622 29.0599 28.9624C28.5297 28.9624 28.099 28.5317 28.099 28.0015V24.6955L28.0846 24.3335C28.0142 23.4939 27.7016 22.6897 27.1823 22.0197C26.5886 21.2539 25.7572 20.7072 24.819 20.465C24.306 20.3324 23.998 19.8088 24.1302 19.2957C24.2628 18.7824 24.7861 18.4731 25.2995 18.6056ZM13.3477 3.04053C16.8232 3.04058 19.6404 5.85798 19.6406 9.3335C19.6406 12.8092 16.8233 15.6277 13.3477 15.6278C9.87194 15.6278 7.05469 12.8092 7.05469 9.3335C7.05489 5.85795 9.87207 3.04053 13.3477 3.04053ZM21.4102 3.22412C22.8386 3.446 24.2494 4.38108 25.1029 5.48063C25.9595 6.58434 26.4244 7.94155 26.4245 9.3387C26.4245 10.7361 25.9597 12.0942 25.1029 13.1981C24.2647 14.2779 22.8488 15.2814 21.3776 15.4585C20.8512 15.5218 20.3732 15.1464 20.3099 14.62C20.2469 14.0937 20.6222 13.6155 21.1484 13.5522C21.9808 13.4519 22.9721 12.8117 23.5859 12.021C24.1814 11.2539 24.5052 10.3098 24.5052 9.3387C24.5051 8.36782 24.1813 7.42468 23.5859 6.65771C22.9874 5.88666 21.991 5.25733 21.1159 5.12126C20.592 5.03993 20.2325 4.54882 20.3138 4.0249C20.3953 3.50119 20.8864 3.14282 21.4102 3.22412ZM13.3477 4.9611C10.9325 4.9611 8.97416 6.91834 8.97396 9.3335C8.97396 11.7488 10.9323 13.7072 13.3477 13.7072C15.7629 13.7071 17.7214 11.7488 17.7214 9.3335C17.7212 6.91837 15.7628 4.96115 13.3477 4.9611Z" fill="#171719"/>
</svg>
