<svg width="20" height="21" viewBox="0 0 20 21" fill="none" xmlns="http://www.w3.org/2000/svg">
<path d="M1.34766 10.4348C1.34766 10.1034 1.61606 9.83501 1.94743 9.83501L16.3566 9.83501L11.6626 5.68381C11.4144 5.46431 11.3911 5.08487 11.6105 4.83664C11.83 4.58841 12.2095 4.56503 12.4577 4.78455L18.3374 9.98475C18.4661 10.0986 18.54 10.2621 18.54 10.434C18.54 10.6058 18.4661 10.7693 18.3374 10.8832L12.4577 16.0834C12.2095 16.3029 11.83 16.2795 11.6105 16.0313C11.3911 15.7831 11.4144 15.4036 11.6626 15.1841L16.355 11.0346L1.94743 11.0346C1.61606 11.0346 1.34767 10.7661 1.34766 10.4348Z" fill="#171719"/>
</svg>
