<svg width="20" height="20" viewBox="0 0 20 20" fill="none" xmlns="http://www.w3.org/2000/svg">
<path d="M13.0389 2.16002C14.062 2.10581 14.8768 2.60214 15.2742 3.52161L15.2747 3.5211C15.6704 4.43635 15.5431 5.33059 14.8957 6.17848C14.8847 6.19268 14.8736 6.20688 14.8615 6.22109C14.9246 6.22109 14.9799 6.22216 15.0373 6.229C15.1136 6.23847 15.191 6.24583 15.2678 6.25372C15.4747 6.27425 15.6889 6.29532 15.8926 6.34953C16.3804 6.47901 16.6804 6.87267 16.6762 7.37739C16.6736 7.69055 16.5152 7.949 16.3773 8.139C16.323 8.21405 16.2646 8.28723 16.2017 8.35919C16.6495 8.70691 17.0672 9.03271 17.1868 9.13006C17.7094 9.55532 18.0915 10.0764 18.3226 10.6774C18.6905 11.6337 18.4699 12.5621 17.7183 13.2242L17.7188 13.2248C16.9704 13.8837 16.0809 14.039 15.0741 13.6853C15.0573 13.6795 15.0404 13.6732 15.0231 13.6658C15.0425 13.7258 15.0588 13.779 15.0699 13.8353C15.0846 13.9111 15.1015 13.9864 15.1178 14.0622C15.162 14.2653 15.2083 14.4753 15.2199 14.6858C15.2478 15.1895 14.9657 15.5969 14.4847 15.749C14.1857 15.8432 13.8915 15.7726 13.6678 15.7C13.5794 15.6715 13.4915 15.6385 13.4035 15.6009C13.2111 16.1344 13.0305 16.6326 12.9752 16.7763C12.732 17.4048 12.3552 17.929 11.8546 18.3348C11.0589 18.98 10.1078 19.0574 9.24568 18.5474H9.24516C8.38727 18.0395 7.96466 17.2411 7.98992 16.1748C7.98992 16.1569 7.99096 16.139 7.99254 16.12C7.94149 16.1569 7.89622 16.189 7.8457 16.2169C7.77833 16.2542 7.71147 16.2932 7.64463 16.3327C7.46516 16.4379 7.27989 16.5463 7.08305 16.6227C6.61254 16.8048 6.13783 16.6627 5.84467 16.2516C5.66257 15.9964 5.63887 15.6942 5.63887 15.46C5.63887 15.3668 5.64313 15.2728 5.65182 15.177C5.08481 15.159 4.55484 15.1413 4.40095 15.1327C3.72833 15.0958 3.11309 14.899 2.57257 14.5484C1.7131 13.9911 1.34573 13.1106 1.56414 12.1327L1.56465 12.1337C1.78255 11.1606 2.4115 10.5121 3.43307 10.2063C3.45044 10.2011 3.46781 10.1963 3.48571 10.1916C3.43518 10.1542 3.39042 10.1211 3.34832 10.0822C3.29201 10.0295 3.23413 9.97846 3.17624 9.92688C3.02098 9.78846 2.86043 9.64582 2.72728 9.48214C2.40886 9.09056 2.39727 8.59583 2.69726 8.19004C2.88358 7.93794 3.16361 7.82214 3.38676 7.74951C3.47533 7.72063 3.56608 7.69559 3.65974 7.67426C3.50169 7.12946 3.35503 6.6199 3.31568 6.47109C3.14305 5.81951 3.13991 5.17373 3.30622 4.55163C3.57096 3.56163 4.29467 2.94003 5.29204 2.84634L5.29096 2.84686C6.28359 2.75317 7.09465 3.15108 7.70096 4.02845C7.71149 4.04318 7.72098 4.05845 7.73098 4.07424C7.75045 4.01424 7.76834 3.96161 7.79255 3.90951C7.82518 3.83951 7.85623 3.76896 7.88728 3.69791C7.97096 3.50738 8.05678 3.31056 8.17151 3.13319C8.44519 2.70951 8.91255 2.54531 9.39149 2.70531C9.68886 2.80478 9.88517 3.03531 10.0236 3.22479C10.0783 3.29993 10.1301 3.37831 10.1792 3.46055C10.6481 3.14218 11.087 2.84548 11.2162 2.76215C11.7825 2.39637 12.3957 2.19424 13.0389 2.16002ZM12.3061 14.9114C11.8801 14.7232 11.4168 14.6594 10.9204 14.7216V14.7221C10.2515 14.8058 9.59886 15.0548 8.92624 15.4826C8.80676 15.5584 8.68727 15.64 8.572 15.719C8.46885 15.7895 8.36254 15.8622 8.2557 15.9311C8.22728 15.9495 8.21094 15.9648 8.2041 15.9837C8.19779 16.0016 8.19939 16.0232 8.20728 16.0537C8.32781 16.5295 8.58148 16.9437 8.96042 17.2837C9.47989 17.7501 10.0983 17.9953 10.7978 18.0122C11.5762 18.0311 12.181 17.6858 12.5952 16.9869C12.7294 16.76 13.1636 15.6395 13.1725 15.6158C13.1952 15.5585 13.1904 15.5332 13.1462 15.4906C13.1364 15.481 13.1265 15.4714 13.1166 15.462C12.911 15.3508 12.7008 15.2125 12.4778 15.0427C12.4251 15.0026 12.3675 14.9585 12.3061 14.9114ZM7.40203 12.9521C7.20534 12.9017 7.03065 12.9039 6.8788 12.9584C6.8781 12.9968 6.87739 13.0353 6.87674 13.0737C6.87096 13.4116 6.94729 13.8437 7.03834 14.2321C7.15623 14.7348 6.7641 15.2121 6.24778 15.1958C6.19527 15.1942 6.14201 15.1924 6.0883 15.1908C6.2025 15.5745 6.52048 15.8063 6.98781 15.8285V15.8279C7.27255 15.8416 7.56046 15.7827 7.92151 15.6379C8.10624 15.5637 8.25836 15.4974 8.39941 15.4132C9.38059 14.8289 10.4467 14.4734 11.5817 14.3511C11.3749 14.1903 11.1665 14.0277 10.9785 13.8808C10.2858 13.706 9.70356 13.5575 9.14622 13.4137C8.86675 13.3416 8.58412 13.2658 8.31044 13.1921C8.01307 13.1121 7.70518 13.0295 7.40203 12.9521ZM14.4491 9.70716C14.2317 9.85453 14.0121 10.0028 13.8139 10.1365C13.4345 10.7399 13.1139 11.2468 12.8052 11.7316C12.6505 11.9748 12.4904 12.2206 12.3362 12.4584C12.1683 12.7169 11.9947 12.9837 11.8268 13.2485C11.7182 13.4198 11.6662 13.5865 11.6709 13.7476C11.7077 13.7603 11.7446 13.7732 11.7815 13.7858C12.101 13.8958 12.5357 13.9564 12.9331 13.9901C13.4478 14.0332 13.7804 14.5537 13.6057 15.0395C13.5879 15.0889 13.5698 15.1391 13.5516 15.1896C13.951 15.1988 14.2689 14.9681 14.4341 14.5311H14.4347C14.5357 14.2642 14.5689 13.9721 14.5426 13.5843C14.5294 13.3859 14.5131 13.2206 14.4762 13.0601C14.2239 11.9471 14.2153 10.8239 14.4491 9.70716ZM3.68045 10.3506C3.66151 10.35 3.6415 10.3584 3.61466 10.3753C3.1994 10.6369 2.88411 11.0058 2.67727 11.4716C2.39411 12.11 2.35201 12.7737 2.55201 13.4443C2.77464 14.1906 3.28991 14.659 4.08254 14.8369C4.33991 14.8948 5.53939 14.9611 5.56465 14.9627C5.62623 14.9663 5.64836 14.9542 5.67572 14.8985C5.68284 14.884 5.68972 14.8696 5.69659 14.8551C5.73883 14.6273 5.80477 14.3868 5.89622 14.1248C5.91764 14.0634 5.94123 13.9965 5.96648 13.9251C6.01478 13.4604 5.93235 12.9985 5.71885 12.5442H5.71993C5.43361 11.9337 4.99517 11.39 4.38044 10.8827C4.27097 10.7927 4.15678 10.7042 4.04625 10.6184C3.94731 10.5421 3.84518 10.4632 3.74676 10.3832C3.72045 10.3621 3.70097 10.3511 3.68045 10.3506ZM11.7648 14.0785C11.808 14.1568 11.8659 14.2336 11.9389 14.3085C11.9426 14.3122 11.9463 14.3159 11.95 14.3197C12.1938 14.3044 12.4407 14.2995 12.6904 14.3053C12.6773 14.3021 12.6636 14.299 12.6504 14.2953C12.36 14.225 12.061 14.1523 11.7648 14.0785ZM6.59333 13.1501C6.53222 13.2153 6.47713 13.294 6.42835 13.3863C6.42599 13.3908 6.42369 13.3954 6.42136 13.3998C6.51134 13.6272 6.59233 13.8606 6.66411 14.1C6.66306 14.0864 6.66203 14.0727 6.66097 14.059C6.63801 13.761 6.61476 13.4545 6.59333 13.1501ZM16.1441 8.5837C16.0968 8.54424 16.071 8.54161 16.0168 8.57003C16.0049 8.57627 15.9931 8.58255 15.9813 8.58889C15.8119 8.75041 15.6152 8.90803 15.3847 9.06792C15.3294 9.10625 15.2688 9.14806 15.2039 9.19266C14.8948 9.53912 14.6919 9.95916 14.5978 10.449L14.5983 10.45C14.4715 11.1121 14.5062 11.8095 14.7057 12.5816C14.741 12.719 14.7815 12.8574 14.821 12.9916C14.8562 13.1116 14.892 13.2353 14.9246 13.3579C14.9331 13.3905 14.9431 13.4106 14.9589 13.4232C14.9741 13.4348 14.9946 13.44 15.0262 13.4421C15.5162 13.4748 15.9878 13.3616 16.4289 13.1058C17.0331 12.7558 17.4573 12.2437 17.6894 11.5832C17.9478 10.8485 17.8067 10.1669 17.2694 9.55687C17.0951 9.35895 16.1636 8.60001 16.1441 8.5837ZM10.8557 7.06216C10.3599 7.01901 9.84466 7.08373 9.18467 7.2711C8.61695 7.43213 8.05558 7.59204 7.49537 7.75511C7.47227 7.79961 7.44879 7.84219 7.42572 7.88422C7.37678 7.97317 7.33042 8.0574 7.29358 8.14425C7.09937 8.60266 7.00147 9.11267 6.97568 9.79793C6.95341 10.3874 6.93202 10.9706 6.91401 11.5537C6.94938 11.5896 6.98282 11.6251 7.01572 11.66C7.08519 11.7342 7.15098 11.8037 7.22203 11.8658C7.59782 12.1921 8.05254 12.4427 8.69675 12.6795C9.25027 12.8827 9.79812 13.083 10.3469 13.2802C10.3922 13.2576 10.4366 13.237 10.4799 13.2164C10.572 13.1732 10.6584 13.1321 10.7394 13.0837C11.1657 12.8269 11.5452 12.4721 11.9688 11.9327C12.3331 11.4692 12.6929 11.0102 13.0499 10.5493C13.0428 10.4996 13.0366 10.4514 13.0304 10.4037C13.0178 10.3032 13.0057 10.2079 12.9841 10.1158C12.8715 9.63109 12.6515 9.16057 12.2694 8.5911C11.9408 8.10091 11.6152 7.61635 11.2869 7.13386C11.2377 7.12566 11.1904 7.11655 11.1436 7.10739C11.0436 7.08845 10.9494 7.07058 10.8557 7.06216ZM3.78171 8.09388C3.45212 8.321 3.32999 8.69508 3.45358 9.14635C3.52885 9.42161 3.67359 9.6774 3.92254 9.97581C4.04991 10.1284 4.16044 10.2527 4.28412 10.3611C5.14286 11.1134 5.81005 12.017 6.27718 13.0582C6.36628 12.8115 6.45657 12.5629 6.53823 12.3385C6.49055 11.6267 6.45163 11.0276 6.41622 10.4537C6.39832 10.1658 6.38305 9.87318 6.36831 9.59002C6.35252 9.28213 6.33572 8.96422 6.31625 8.6516C6.30339 8.44876 6.24723 8.28319 6.14838 8.15555C6.11189 8.16667 6.07537 8.17778 6.03885 8.18896C5.7157 8.28791 5.32835 8.49426 4.9873 8.70058C4.54572 8.96795 3.97043 8.74267 3.82622 8.24689C3.81154 8.19651 3.79671 8.1454 3.78171 8.09388ZM14.7268 8.67159C14.5698 8.92637 14.4081 9.18844 14.2462 9.44765C14.3343 9.43081 14.4254 9.39945 14.5194 9.35318C14.524 9.35092 14.5285 9.34852 14.5331 9.34624C14.5939 9.10919 14.6657 8.87248 14.7484 8.63633C14.741 8.6479 14.7341 8.66002 14.7268 8.67159ZM10.9197 5.54443C10.9927 5.79683 11.0659 6.05148 11.1318 6.28127C11.5883 6.82846 11.9712 7.28991 12.3368 7.73316C12.5204 7.95579 12.7046 8.18371 12.8831 8.4037C13.0767 8.64317 13.2773 8.89107 13.4768 9.13212C13.6062 9.28841 13.7486 9.38929 13.9032 9.43459C13.9268 9.40328 13.9505 9.37197 13.9741 9.34059C14.1773 9.07059 14.3694 8.67583 14.5242 8.30846C14.7242 7.83268 15.322 7.67689 15.7299 7.99319C15.7715 8.02539 15.8136 8.0581 15.8561 8.09105C15.9879 7.71431 15.8667 7.34112 15.5021 7.04895L15.5026 7.04844C15.2799 6.87002 15.0125 6.74845 14.6352 6.65319C14.442 6.60477 14.2799 6.56899 14.1163 6.55425C12.9801 6.45023 11.9094 6.11166 10.9197 5.54443ZM5.58788 7.8576C5.39958 8.01339 5.20271 8.16253 4.99727 8.30476C5.0099 8.2995 5.02256 8.29425 5.03572 8.28898C5.31196 8.17515 5.59594 8.05834 5.8787 7.94395C5.79768 7.90593 5.70564 7.87781 5.60253 7.86001C5.59765 7.85918 5.59276 7.85842 5.58788 7.8576ZM9.81743 3.70639C9.49972 3.46404 9.10702 3.46387 8.71623 3.72057V3.72006C8.47781 3.87637 8.2794 4.09321 8.07257 4.42267C7.96678 4.59109 7.88305 4.73424 7.81779 4.88582C7.36775 5.93458 6.71448 6.84833 5.86883 7.61438C6.13122 7.62293 6.39586 7.63196 6.63471 7.64029C7.29669 7.37516 7.85426 7.15331 8.38887 6.94215C8.65729 6.83636 8.93095 6.73159 9.19515 6.63001C9.48304 6.51948 9.78044 6.40584 10.0715 6.29058C10.2602 6.21572 10.4001 6.11131 10.4909 5.97823C10.4687 5.9464 10.4464 5.91452 10.4241 5.88268C10.2299 5.60584 9.91413 5.3011 9.61256 5.04058C9.22203 4.70321 9.25834 4.08633 9.68518 3.79633C9.72872 3.76671 9.77289 3.73668 9.81743 3.70639ZM6.26464 3.70109C5.56991 3.62899 4.9257 3.79427 4.34991 4.19163C3.70887 4.63427 3.42255 5.26847 3.49886 6.07794C3.52361 6.34056 3.83085 7.50174 3.83727 7.52634C3.85253 7.58581 3.87151 7.60317 3.93256 7.61212C3.94664 7.61417 3.96069 7.61612 3.97471 7.61798C4.20593 7.58726 4.45676 7.57552 4.73622 7.58159C4.80249 7.58304 4.87502 7.58482 4.95245 7.58683C5.40751 7.4886 5.81973 7.26785 6.18467 6.9258C6.67676 6.46475 7.05836 5.88001 7.35099 5.13844C7.40309 5.00687 7.4515 4.87054 7.49886 4.73897C7.54097 4.62161 7.58413 4.50002 7.63044 4.3816C7.64254 4.35003 7.64676 4.32846 7.64098 4.30846C7.63572 4.29004 7.6215 4.27372 7.59729 4.25372C7.21992 3.93951 6.77148 3.75372 6.26464 3.70109ZM13.7052 3.04058C13.0862 2.56794 12.3941 2.4916 11.6483 2.8137C11.4063 2.91843 10.3972 3.56974 10.3752 3.58318C10.3231 3.61634 10.3126 3.6395 10.3231 3.70001C10.3256 3.71482 10.3283 3.72958 10.331 3.74427C10.4315 3.95428 10.52 4.18868 10.6004 4.45582C10.6194 4.51877 10.6399 4.58768 10.6617 4.66126C10.8958 5.06418 11.2332 5.38825 11.6715 5.63001V5.63109C12.262 5.95687 12.9362 6.13899 13.732 6.18793C13.8736 6.19688 14.0178 6.20111 14.1578 6.20479C14.2826 6.20848 14.4115 6.21214 14.5383 6.21898C14.572 6.22108 14.5941 6.21791 14.611 6.20633C14.6267 6.19581 14.6378 6.17741 14.6499 6.14795C14.832 5.69216 14.8705 5.20845 14.7636 4.71004C14.6173 4.02741 14.2615 3.46531 13.7052 3.04058ZM10.0199 4.96004C10.2136 5.18794 10.4126 5.42247 10.6092 5.65622C10.6203 5.56735 10.6186 5.47106 10.6036 5.36742C10.6029 5.36237 10.602 5.35734 10.6013 5.3523C10.3948 5.22128 10.192 5.08004 9.99306 4.92848C10.002 4.939 10.011 4.94951 10.0199 4.96004Z" fill="#FAFAFA"/>
</svg>
