<svg width="32" height="32" viewBox="0 0 32 32" fill="none" xmlns="http://www.w3.org/2000/svg">
<path d="M16.0013 2.30615C23.5652 2.30648 29.6967 8.4389 29.6967 16.0028C29.6964 23.5664 23.565 29.6978 16.0013 29.6982C8.43743 29.6982 2.30502 23.5666 2.30469 16.0028C2.30469 8.43869 8.43723 2.30615 16.0013 2.30615ZM16.0013 4.22673C9.49762 4.22673 4.22527 9.49908 4.22527 16.0028C4.2256 22.5062 9.49782 27.7776 16.0013 27.7776C22.5046 27.7772 27.7758 22.506 27.7761 16.0028C27.7761 9.49929 22.5048 4.22706 16.0013 4.22673ZM16 7.04314C16.5302 7.04314 16.961 7.47389 16.961 8.00408V14.8166C16.961 15.1801 17.1658 15.5133 17.4909 15.676L21.7631 17.8114C22.2371 18.0484 22.4295 18.625 22.1928 19.0992C21.9557 19.5733 21.3792 19.7658 20.905 19.5289L16.6328 17.3934C15.6571 16.9056 15.0404 15.9075 15.0404 14.8166V8.00408C15.0404 7.4741 15.4701 7.04348 16 7.04314Z" fill="#171719"/>
</svg>
