<svg width="10" height="10" viewBox="0 0 10 10" fill="none" xmlns="http://www.w3.org/2000/svg">
<path d="M9.79737 0.236212C9.98478 0.423619 9.98515 0.727774 9.79783 0.915237L5.67949 5.03358L9.79691 9.151C9.98436 9.33846 9.9839 9.64258 9.79645 9.83003C9.60899 10.0173 9.30529 10.0174 9.11788 9.83003L5.00046 5.71261L0.882576 9.83049C0.695125 10.0179 0.391003 10.0175 0.203551 9.83003C0.0162235 9.64257 0.0161406 9.33888 0.203551 9.15147L4.32144 5.03358L0.20263 0.914777C0.0153503 0.727362 0.0153614 0.423633 0.20263 0.236212C0.39004 0.0488019 0.694194 0.0484248 0.881655 0.235752L5.00046 4.35456L9.1188 0.236212C9.30623 0.0489364 9.60995 0.0489295 9.79737 0.236212Z" fill="#171719"/>
</svg>
