<svg width="36" height="36" viewBox="0 0 36 36" fill="none" xmlns="http://www.w3.org/2000/svg">
<g clip-path="url(#clip0_2_9325)">
<path d="M23.9962 12.0452C24.2305 12.2794 24.2309 12.6596 23.9968 12.894L18.8489 18.0419L23.9956 23.1887C24.23 23.423 24.2294 23.8031 23.9951 24.0374C23.7607 24.2716 23.3811 24.2717 23.1469 24.0374L18.0001 18.8907L12.8527 24.038C12.6184 24.2723 12.2383 24.2718 12.004 24.0374C11.7698 23.8031 11.7697 23.4235 12.004 23.1892L17.1513 18.0419L12.0028 12.8934C11.7687 12.6591 11.7687 12.2795 12.0028 12.0452C12.2371 11.8109 12.6173 11.8104 12.8516 12.0446L18.0001 17.1931L23.148 12.0452C23.3823 11.8111 23.762 11.8111 23.9962 12.0452Z" fill="#171719"/>
</g>
<defs>
<clipPath id="clip0_2_9325">
<rect width="20" height="20" fill="white" transform="translate(8 8)"/>
</clipPath>
</defs>
</svg>
