<svg width="28" height="28" viewBox="0 0 28 28" fill="none" xmlns="http://www.w3.org/2000/svg">
<path d="M14.0299 0.303101C15.8988 0.303077 17.5423 0.302601 18.8919 0.498414C20.2719 0.698647 21.4964 1.12216 22.4115 2.08956C23.2808 3.00876 23.6975 4.01819 23.8945 5.38774C24.0801 6.67813 24.0795 8.36997 24.0794 10.6846V10.8005H24.1016C26.1045 10.8005 27.7279 12.4238 27.7279 14.4268V19.2797C27.7279 21.2369 26.1779 22.8276 24.2383 22.8995C24.2022 25.5193 22.0685 27.6325 19.4401 27.6325H14.8646C14.3344 27.6325 13.9049 27.2017 13.9049 26.6716C13.9052 26.1416 14.3346 25.712 14.8646 25.712H19.4401C21.0055 25.712 22.2764 24.463 22.3164 22.9073H22.0755C20.0726 22.9073 18.4479 21.2826 18.4479 19.2797V14.4268C18.4479 12.4238 20.0726 10.8005 22.0755 10.8005H22.1602V10.7745C22.1602 8.34984 22.157 6.79846 21.9935 5.66117C21.839 4.58726 21.553 3.97693 21.0169 3.40987C20.5262 2.89097 19.7973 2.57086 18.6159 2.39946C17.419 2.22581 15.9127 2.22367 13.9674 2.22367C12.185 2.22367 10.7085 2.22559 9.5026 2.39946C8.29917 2.57303 7.53103 2.89793 7.04688 3.40987C6.51078 3.97692 6.22478 4.58727 6.07031 5.66117C5.90678 6.79846 5.90365 8.34984 5.90365 10.7745V10.8096H5.98958C7.99223 10.8098 9.61563 12.4333 9.61589 14.4359V19.2901C9.6157 21.2928 7.99228 22.9162 5.98958 22.9164H3.96224C1.95957 22.9162 0.336127 21.2928 0.335938 19.2901V14.4359C0.336198 12.4333 1.95962 10.8098 3.96224 10.8096H3.98438V10.6846C3.98434 8.36997 3.98372 6.67813 4.16927 5.38774C4.36627 4.01819 4.78302 3.00877 5.65234 2.08956C6.57399 1.11519 7.85543 0.696481 9.22917 0.498414C10.5864 0.302744 12.1971 0.30308 13.9141 0.303101H14.0299ZM3.96224 12.7302C3.02 12.7304 2.25677 13.4937 2.25651 14.4359V19.2901C2.2567 20.2324 3.01996 20.9956 3.96224 20.9958H5.98958C6.93189 20.9956 7.69512 20.2324 7.69531 19.2901V14.4359C7.69505 13.4937 6.93185 12.7304 5.98958 12.7302H3.96224ZM22.0755 12.7198C21.133 12.7198 20.3685 13.4842 20.3685 14.4268V19.2797C20.3685 20.2222 21.133 20.9867 22.0755 20.9867H24.1016C25.0441 20.9867 25.8086 20.2222 25.8086 19.2797V14.4268C25.8086 13.4842 25.0441 12.7198 24.1016 12.7198H22.0755Z" fill="#171719"/>
</svg>
