<svg width="26" height="26" viewBox="0 0 26 26" fill="none" xmlns="http://www.w3.org/2000/svg">
<path d="M19.1051 0.903931C20.5374 0.903936 21.8546 1.6882 22.5372 2.94731L25.2345 7.92268C25.9612 9.26309 25.841 10.9039 24.9268 12.1241L15.8187 24.281C14.4108 26.1602 11.5925 26.1602 10.1846 24.281L1.07652 12.1241C0.162316 10.9039 0.0421184 9.26309 0.768769 7.92268L3.46608 2.94731C4.14868 1.6882 5.46592 0.903942 6.89815 0.903931H19.1051ZM13.9616 12.7176V23.4514C14.0796 23.3627 14.1879 23.2556 14.2821 23.1297L23.3176 11.0696L13.9616 12.7176ZM11.7211 23.1297C11.8154 23.2555 11.9237 23.3626 12.0416 23.4514V12.7176L2.68558 11.0696L11.7211 23.1297ZM11.5908 2.82393C11.5854 2.8375 11.5798 2.85105 11.5738 2.86449L8.32527 10.1134L13.0016 10.9371L17.7312 10.1041L14.4688 2.82393H11.5908ZM6.89815 2.82393C6.1703 2.82394 5.50085 3.2225 5.15396 3.86237L2.45671 8.83774C2.41715 8.91072 2.38255 8.98546 2.35283 9.06149L6.37521 9.76993L9.48796 2.82393H6.89815ZM19.6377 9.66337C19.6522 9.69578 19.6648 9.72858 19.6755 9.76162L23.6504 9.06149C23.6207 8.98547 23.5861 8.91071 23.5466 8.83774L20.8493 3.86237C20.5024 3.2225 19.833 2.82394 19.1051 2.82393H16.5727L19.6377 9.66337Z" fill="#171719"/>
</svg>
