<svg width="36" height="36" viewBox="0 0 36 36" fill="none" xmlns="http://www.w3.org/2000/svg">
<path d="M0 12C0 5.37258 5.37258 0 12 0H24C30.6274 0 36 5.37258 36 12V24C36 30.6274 30.6274 36 24 36H12C5.37258 36 0 30.6274 0 24V12Z" fill="#E3E4E8"/>
<path d="M26.3334 18.2534C26.3334 13.6229 22.6025 9.86914 18.0001 9.86914C13.3977 9.86914 9.66675 13.6229 9.66675 18.2534C9.66675 22.4381 12.7141 25.9068 16.698 26.5358V20.677H14.5821V18.2534H16.698V16.4062C16.698 14.3049 17.9422 13.1442 19.8456 13.1442C20.7574 13.1442 21.711 13.308 21.711 13.308V15.3713H20.6602C19.6251 15.3713 19.3022 16.0177 19.3022 16.6807V18.2534H21.6133L21.2439 20.677H19.3022V26.5358C23.2861 25.9068 26.3334 22.4383 26.3334 18.2534Z" fill="#171719"/>
</svg>
