<svg width="20" height="21" viewBox="0 0 20 21" fill="none" xmlns="http://www.w3.org/2000/svg">
<path d="M18.3327 10.7077C18.3327 6.07724 14.6018 2.32349 9.99935 2.32349C5.39697 2.32349 1.66602 6.07724 1.66602 10.7077C1.66602 14.8925 4.71338 18.3612 8.69727 18.9902L8.69727 13.1313H6.58138V10.7077H8.69727V8.86059C8.69727 6.75929 9.94143 5.59859 11.8448 5.59859C12.7567 5.59859 13.7103 5.76234 13.7103 5.76234V7.82566H12.6595C11.6243 7.82566 11.3014 8.472 11.3014 9.13507V10.7077H13.6126L13.2432 13.1313H11.3014V18.9902C15.2853 18.3612 18.3327 14.8927 18.3327 10.7077Z" fill="#171719"/>
</svg>
