<svg width="33" height="32" viewBox="0 0 33 32" fill="none" xmlns="http://www.w3.org/2000/svg">
<path d="M14.029 3.36143C14.8816 1.31149 17.7856 1.31149 18.6383 3.36143L21.3626 9.91168C21.4456 10.1111 21.6332 10.2474 21.8485 10.2646L28.92 10.8316C31.133 11.009 32.0304 13.7708 30.3443 15.2152L24.9565 19.8304C24.7925 19.9709 24.7209 20.1913 24.771 20.4014L26.417 27.302C26.9322 29.4616 24.5828 31.1686 22.6881 30.0113L16.6339 26.3134C16.4496 26.2008 16.2177 26.2008 16.0334 26.3134L9.9792 30.0113C8.08449 31.1686 5.73512 29.4616 6.25026 27.302L7.89633 20.4014C7.94643 20.1913 7.87478 19.9709 7.71076 19.8304L2.32301 15.2152C0.636874 13.7708 1.53424 11.009 3.74733 10.8316L10.8188 10.2646C11.0341 10.2474 11.2217 10.1111 11.3046 9.91168L14.029 3.36143ZM16.8655 4.0988C16.6687 3.62574 15.9986 3.62573 15.8018 4.0988L13.0774 10.649C12.7179 11.5132 11.9052 12.1037 10.9723 12.1785L3.90076 12.7454C3.39005 12.7864 3.18297 13.4237 3.57208 13.757L8.95983 18.3722C9.67066 18.9811 9.98105 19.9365 9.76389 20.8469L8.11783 27.7475C7.99895 28.2459 8.54115 28.6398 8.97839 28.3727L15.0326 24.6749C15.8313 24.187 16.8359 24.187 17.6347 24.6749L23.6889 28.3727C24.1261 28.6398 24.6683 28.2459 24.5495 27.7475L22.9034 20.8469C22.6862 19.9365 22.9966 18.9811 23.7075 18.3722L29.0952 13.757C29.4843 13.4237 29.2772 12.7864 28.7665 12.7454L21.695 12.1785C20.762 12.1037 19.9493 11.5132 19.5899 10.649L16.8655 4.0988Z" fill="#171719"/>
</svg>
