<svg width="32" height="32" viewBox="0 0 32 32" fill="none" xmlns="http://www.w3.org/2000/svg">
<path d="M26.6667 4.375C28.6634 4.375 30.2941 6.00461 30.2943 8.0013V24.0013C30.2943 25.9982 28.6635 27.6289 26.6667 27.6289H5.33333C3.33664 27.6287 1.70703 25.998 1.70703 24.0013V8.0013C1.70723 6.00473 3.33676 4.3752 5.33333 4.375H26.6667ZM5.33333 6.29557C4.39715 6.29577 3.6278 7.06512 3.6276 8.0013V24.0013C3.6276 24.9377 4.39702 25.7081 5.33333 25.7083H26.6667C27.6031 25.7083 28.3737 24.9378 28.3737 24.0013V8.0013C28.3735 7.06499 27.603 6.29557 26.6667 6.29557H5.33333ZM23.7695 8.97396C24.2038 8.67009 24.8014 8.77552 25.1055 9.20964C25.4095 9.64399 25.3041 10.2428 24.8698 10.5469L16.5495 16.3711C16.2191 16.6019 15.7795 16.6021 15.4492 16.3711L7.12891 10.5469C6.69456 10.2428 6.58919 9.64399 6.89323 9.20964C7.19728 8.77528 7.79612 8.66991 8.23047 8.97396L16 14.4128L23.7695 8.97396Z" fill="#171719"/>
</svg>
