<svg width="33" height="32" viewBox="0 0 33 32" fill="none" xmlns="http://www.w3.org/2000/svg">
<path d="M18.3138 18.4312C19.8791 18.4312 21.3584 19.1208 22.4323 20.3101C23.5031 21.4959 24.0898 23.0851 24.0898 24.7241V28.0314C24.0897 28.5615 23.6603 28.991 23.1302 28.991C22.6001 28.991 22.1707 28.5615 22.1706 28.0314V24.7241C22.1705 23.5347 21.743 22.4108 21.0078 21.5965C20.2753 20.7854 19.303 20.3517 18.3138 20.3517H8.68229C7.69314 20.3517 6.72205 20.7855 5.98958 21.5965C5.25425 22.4108 4.82691 23.5346 4.82682 24.7241V28.0314C4.82668 28.5615 4.39599 28.991 3.86589 28.991C3.33595 28.9909 2.90639 28.5614 2.90625 28.0314V24.7241C2.90634 23.0851 3.49315 21.4959 4.5638 20.3101C5.63767 19.1208 7.11696 18.4312 8.68229 18.4312H18.3138ZM25.6315 18.6056C26.9816 18.9542 28.1783 19.7419 29.0326 20.8439C29.8865 21.9458 30.3505 23.3001 30.3516 24.6942V28.0015C30.3516 28.5315 29.9219 28.9622 29.3919 28.9624C28.8617 28.9624 28.431 28.5317 28.431 28.0015V24.6955L28.4167 24.3335C28.3462 23.4939 28.0337 22.6897 27.5143 22.0197C26.9207 21.2539 26.0892 20.7072 25.151 20.465C24.6381 20.3324 24.33 19.8088 24.4622 19.2957C24.5948 18.7824 25.1182 18.4731 25.6315 18.6056ZM13.6797 3.04053C17.1552 3.04058 19.9725 5.85798 19.9727 9.3335C19.9727 12.8092 17.1554 15.6277 13.6797 15.6278C10.204 15.6278 7.38672 12.8092 7.38672 9.3335C7.38692 5.85795 10.2041 3.04053 13.6797 3.04053ZM21.7422 3.22412C23.1707 3.446 24.5814 4.38108 25.4349 5.48063C26.2916 6.58434 26.7564 7.94155 26.7565 9.3387C26.7565 10.7361 26.2917 12.0942 25.4349 13.1981C24.5967 14.2779 23.1809 15.2814 21.7096 15.4585C21.1832 15.5218 20.7052 15.1464 20.6419 14.62C20.5789 14.0937 20.9542 13.6155 21.4805 13.5522C22.3128 13.4519 23.3041 12.8117 23.918 12.021C24.5134 11.2539 24.8372 10.3098 24.8372 9.3387C24.8371 8.36782 24.5133 7.42468 23.918 6.65771C23.3194 5.88666 22.3231 5.25733 21.4479 5.12126C20.924 5.03993 20.5645 4.54882 20.6458 4.0249C20.7273 3.50119 21.2184 3.14282 21.7422 3.22412ZM13.6797 4.9611C11.2645 4.9611 9.30619 6.91834 9.30599 9.3335C9.30599 11.7488 11.2644 13.7072 13.6797 13.7072C16.095 13.7071 18.0534 11.7488 18.0534 9.3335C18.0532 6.91837 16.0948 4.96115 13.6797 4.9611Z" fill="#171719"/>
</svg>
