<svg width="36" height="36" viewBox="0 0 36 36" fill="none" xmlns="http://www.w3.org/2000/svg">
<path d="M0 12C0 5.37258 5.37258 0 12 0H24C30.6274 0 36 5.37258 36 12V24C36 30.6274 30.6274 36 24 36H12C5.37258 36 0 30.6274 0 24V12Z" fill="#E3E4E8"/>
<path fill-rule="evenodd" clip-rule="evenodd" d="M21.3333 10.7021L14.6667 10.7021C12.3655 10.7021 10.5 12.5676 10.5 14.8688L10.5 21.5355C10.5 23.8366 12.3655 25.7021 14.6667 25.7021H21.3333C23.6345 25.7021 25.5 23.8366 25.5 21.5355V14.8688C25.5 12.5676 23.6345 10.7021 21.3333 10.7021ZM24.0417 21.5355C24.0371 23.0293 22.8272 24.2392 21.3333 24.2438H14.6667C13.1728 24.2392 11.9629 23.0293 11.9583 21.5355L11.9583 14.8688C11.9629 13.3749 13.1728 12.1651 14.6667 12.1605L21.3333 12.1605C22.8272 12.1651 24.0371 13.3749 24.0417 14.8688V21.5355ZM21.9583 15.0771C22.4186 15.0771 22.7917 14.704 22.7917 14.2438C22.7917 13.7836 22.4186 13.4105 21.9583 13.4105C21.4981 13.4105 21.125 13.7836 21.125 14.2438C21.125 14.704 21.4981 15.0771 21.9583 15.0771ZM18 14.4521C15.9289 14.4521 14.25 16.1311 14.25 18.2021C14.25 20.2732 15.9289 21.9521 18 21.9521C20.0711 21.9521 21.75 20.2732 21.75 18.2021C21.7522 17.2069 21.3578 16.2518 20.6541 15.548C19.9503 14.8443 18.9952 14.4499 18 14.4521ZM15.7083 18.2021C15.7083 19.4678 16.7343 20.4938 18 20.4938C19.2657 20.4938 20.2917 19.4678 20.2917 18.2021C20.2917 16.9365 19.2657 15.9105 18 15.9105C16.7343 15.9105 15.7083 16.9365 15.7083 18.2021Z" fill="#171719"/>
</svg>
