<svg width="20" height="21" viewBox="0 0 20 21" fill="none" xmlns="http://www.w3.org/2000/svg">
<path d="M8.35953 6.33459C8.6909 6.33459 8.95953 6.60322 8.95953 6.93459C8.95953 7.26597 8.6909 7.53459 8.35953 7.53459L5.77953 7.53459C4.96058 7.53459 4.17965 7.8477 3.60742 8.39803C3.036 8.9476 2.71953 9.68788 2.71953 10.4546C2.71953 11.2213 3.036 11.9616 3.60742 12.5112C4.17965 13.0615 4.96058 13.3746 5.77953 13.3746H8.35953C8.6909 13.3746 8.95953 13.6432 8.95953 13.9746C8.95953 14.306 8.6909 14.5746 8.35953 14.5746H5.77953C4.6571 14.5746 3.57616 14.146 2.77562 13.3761C1.97429 12.6054 1.51953 11.555 1.51953 10.4546C1.51953 9.35418 1.97429 8.30379 2.77562 7.53311C3.57616 6.7632 4.6571 6.33459 5.77953 6.33459H8.35953ZM14.2195 6.33459C15.342 6.33459 16.4229 6.7632 17.2234 7.53311C18.0248 8.30379 18.4795 9.35419 18.4795 10.4546C18.4795 11.555 18.0248 12.6054 17.2234 13.3761C16.4229 14.146 15.342 14.5746 14.2195 14.5746H11.6395C11.3082 14.5746 11.0395 14.306 11.0395 13.9746C11.0395 13.6432 11.3082 13.3746 11.6395 13.3746H14.2195C15.0385 13.3746 15.8194 13.0615 16.3916 12.5112C16.9631 11.9616 17.2795 11.2213 17.2795 10.4546C17.2795 9.68788 16.9631 8.9476 16.3916 8.39803C15.8194 7.8477 15.0385 7.5346 14.2195 7.53459L11.6395 7.53459C11.3082 7.53459 11.0395 7.26597 11.0395 6.93459C11.0395 6.60322 11.3082 6.33459 11.6395 6.33459L14.2195 6.33459ZM13.0395 9.85459C13.3709 9.85459 13.6395 10.1232 13.6395 10.4546C13.6395 10.786 13.3709 11.0546 13.0395 11.0546H6.95953C6.62816 11.0546 6.35953 10.786 6.35953 10.4546C6.35953 10.1232 6.62816 9.85459 6.95953 9.85459H13.0395Z" fill="#171719"/>
</svg>
