<svg width="20" height="21" viewBox="0 0 20 21" fill="none" xmlns="http://www.w3.org/2000/svg">
<path d="M1.2793 4.05566C1.2793 3.49448 1.47571 3.03151 1.86852 2.66677C2.26133 2.302 2.77201 2.11963 3.40051 2.11963C4.0178 2.11963 4.51723 2.29919 4.89883 2.65835C5.29164 3.02872 5.48805 3.51131 5.48805 4.10616C5.48805 4.64488 5.29726 5.0938 4.91566 5.45296C4.52285 5.82333 4.00657 6.00852 3.36684 6.00852H3.35C2.73271 6.00852 2.23329 5.82333 1.85169 5.45296C1.47009 5.08259 1.2793 4.61682 1.2793 4.05566ZM1.49815 18.7863L1.49815 7.5405H5.23553L5.23553 18.7863H1.49815ZM7.30623 18.7863H11.0436V12.5068C11.0436 12.114 11.0885 11.811 11.1783 11.5977C11.3354 11.2161 11.5739 10.8935 11.8938 10.6297C12.2136 10.366 12.6149 10.2341 13.0975 10.2341C14.3545 10.2341 14.983 11.0815 14.983 12.7762V18.7863H18.7204V12.3385C18.7204 10.6774 18.3276 9.41761 17.5419 8.55902C16.7563 7.70044 15.7181 7.27114 14.4274 7.27114C12.9796 7.27114 11.8517 7.89404 11.0436 9.13983V9.1735H11.0268L11.0436 9.13983V7.5405H7.30623C7.32867 7.89965 7.3399 9.01636 7.3399 10.8907C7.3399 12.765 7.32867 15.3968 7.30623 18.7863Z" fill="#171719"/>
</svg>
