<svg width="36" height="36" viewBox="0 0 36 36" fill="none" xmlns="http://www.w3.org/2000/svg">
<path d="M25.8794 23.2402C26.2107 23.2402 26.479 23.5087 26.4792 23.84C26.4792 24.1714 26.2108 24.4406 25.8794 24.4406H17.3198C16.9885 24.4406 16.7192 24.1714 16.7192 23.84C16.7194 23.5087 16.9885 23.2402 17.3198 23.2402H25.8794ZM25.8794 17.4395C26.2107 17.4395 26.479 17.708 26.4792 18.0392C26.4792 18.3706 26.2108 18.6398 25.8794 18.6398H10.1193C9.78803 18.6397 9.51953 18.3705 9.51953 18.0392C9.51965 17.708 9.78811 17.4396 10.1193 17.4395H25.8794ZM25.8794 11.5996C26.2107 11.5996 26.479 11.8681 26.4792 12.1994C26.4792 12.5308 26.2108 12.8 25.8794 12.8L10.1193 12.8C9.78803 12.7999 9.51953 12.5307 9.51953 12.1994C9.51965 11.8682 9.78811 11.5997 10.1193 11.5996L25.8794 11.5996Z" fill="#171719"/>
</svg>
