<svg width="24" height="24" viewBox="0 0 24 24" fill="none" xmlns="http://www.w3.org/2000/svg">
<path d="M1.61719 12.0239C1.61719 12.4215 1.93927 12.7436 2.33691 12.7436L19.6279 12.7436L13.9951 17.725C13.6973 17.9884 13.6693 18.4438 13.9326 18.7416C14.196 19.0395 14.6513 19.0676 14.9492 18.8041L22.0049 12.5639C22.1594 12.4272 22.248 12.2311 22.248 12.0248C22.248 11.8186 22.1593 11.6224 22.0049 11.4858L14.9492 5.24555C14.6513 4.98212 14.196 5.01017 13.9326 5.30805C13.6693 5.60592 13.6973 6.06125 13.9951 6.32465L19.626 11.3041L2.33691 11.3041C1.93928 11.3041 1.6172 11.6262 1.61719 12.0239Z" fill="#171719"/>
</svg>
