<svg width="24" height="24" viewBox="0 0 24 24" fill="none" xmlns="http://www.w3.org/2000/svg">
<path d="M1.75195 11.9752C1.75195 11.7689 1.84064 11.5728 1.99512 11.4361L9.05085 5.19587C9.34873 4.93244 9.80404 4.96049 10.0675 5.25837C10.3307 5.55617 10.3026 6.01059 10.005 6.27399L4.37112 11.2564L21.5285 11.2564C21.9262 11.2564 22.2492 11.5785 22.2492 11.9761C22.2492 12.3737 21.9261 12.6959 21.5285 12.6959L4.37307 12.6959L10.005 17.6754C10.3028 17.9387 10.3308 18.3941 10.0675 18.692C9.80404 18.9898 9.34873 19.0179 9.05085 18.7545L1.99512 12.5142C1.84062 12.3776 1.75197 12.1814 1.75195 11.9752Z" fill="#171719"/>
</svg>
