<svg width="152" height="24" viewBox="0 0 152 24" fill="none" xmlns="http://www.w3.org/2000/svg">
<path d="M10.2715 2.52075C10.911 0.98332 13.089 0.983313 13.7285 2.52075L15.7717 7.43344C15.8339 7.58302 15.9746 7.6852 16.1361 7.69815L21.4397 8.12335C23.0995 8.25642 23.7725 10.3278 22.508 11.4111L18.4671 14.8725C18.3441 14.9778 18.2904 15.1432 18.328 15.3008L19.5625 20.4762C19.9489 22.0959 18.1868 23.3761 16.7658 22.5082L12.2252 19.7348C12.0869 19.6503 11.913 19.6503 11.7748 19.7348L7.23415 22.5082C5.81312 23.3761 4.05109 22.0959 4.43745 20.4762L5.672 15.3008C5.70957 15.1432 5.65584 14.9778 5.53283 14.8725L1.49201 11.4111C0.227413 10.3278 0.900432 8.25642 2.56025 8.12335L7.86387 7.69815C8.02535 7.6852 8.16602 7.58301 8.22823 7.43344L10.2715 2.52075Z" fill="url(#paint0_linear_150_189)"/>
<path d="M42.2715 2.52075C42.911 0.98332 45.089 0.983313 45.7285 2.52075L47.7717 7.43344C47.8339 7.58302 47.9746 7.6852 48.1361 7.69815L53.4397 8.12335C55.0995 8.25642 55.7725 10.3278 54.508 11.4111L50.4671 14.8725C50.3441 14.9778 50.2904 15.1432 50.328 15.3008L51.5625 20.4762C51.9489 22.0959 50.1868 23.3761 48.7658 22.5082L44.2252 19.7348C44.0869 19.6503 43.913 19.6503 43.7748 19.7348L39.2342 22.5082C37.8131 23.3761 36.0511 22.0959 36.4375 20.4762L37.672 15.3008C37.7096 15.1432 37.6558 14.9778 37.5328 14.8725L33.492 11.4111C32.2274 10.3278 32.9004 8.25642 34.5602 8.12335L39.8639 7.69815C40.0253 7.6852 40.166 7.58301 40.2282 7.43344L42.2715 2.52075Z" fill="url(#paint1_linear_150_189)"/>
<path d="M74.2715 2.52075C74.911 0.98332 77.089 0.983313 77.7285 2.52075L79.7717 7.43344C79.8339 7.58302 79.9746 7.6852 80.1361 7.69815L85.4397 8.12335C87.0995 8.25642 87.7725 10.3278 86.508 11.4111L82.4671 14.8725C82.3441 14.9778 82.2904 15.1432 82.328 15.3008L83.5625 20.4762C83.9489 22.0959 82.1868 23.3761 80.7658 22.5082L76.2252 19.7348C76.0869 19.6503 75.913 19.6503 75.7748 19.7348L71.2342 22.5082C69.8131 23.3761 68.0511 22.0959 68.4375 20.4762L69.672 15.3008C69.7096 15.1432 69.6558 14.9778 69.5328 14.8725L65.492 11.4111C64.2274 10.3278 64.9004 8.25642 66.5602 8.12335L71.8639 7.69815C72.0253 7.6852 72.166 7.58301 72.2282 7.43344L74.2715 2.52075Z" fill="url(#paint2_linear_150_189)"/>
<path d="M106.272 2.52075C106.911 0.98332 109.089 0.983313 109.728 2.52075L111.772 7.43344C111.834 7.58302 111.975 7.6852 112.136 7.69815L117.44 8.12335C119.1 8.25642 119.773 10.3278 118.508 11.4111L114.467 14.8725C114.344 14.9778 114.29 15.1432 114.328 15.3008L115.563 20.4762C115.949 22.0959 114.187 23.3761 112.766 22.5082L108.225 19.7348C108.087 19.6503 107.913 19.6503 107.775 19.7348L103.234 22.5082C101.813 23.3761 100.051 22.0959 100.437 20.4762L101.672 15.3008C101.71 15.1432 101.656 14.9778 101.533 14.8725L97.492 11.4111C96.2274 10.3278 96.9004 8.25642 98.5602 8.12335L103.864 7.69815C104.025 7.6852 104.166 7.58301 104.228 7.43344L106.272 2.52075Z" fill="url(#paint3_linear_150_189)"/>
<path d="M138.272 2.52075C138.911 0.98332 141.089 0.983313 141.728 2.52075L143.772 7.43344C143.834 7.58302 143.975 7.6852 144.136 7.69815L149.44 8.12335C151.1 8.25642 151.773 10.3278 150.508 11.4111L146.467 14.8725C146.344 14.9778 146.29 15.1432 146.328 15.3008L147.563 20.4762C147.949 22.0959 146.187 23.3761 144.766 22.5082L140.225 19.7348C140.087 19.6503 139.913 19.6503 139.775 19.7348L135.234 22.5082C133.813 23.3761 132.051 22.0959 132.437 20.4762L133.672 15.3008C133.71 15.1432 133.656 14.9778 133.533 14.8725L129.492 11.4111C128.227 10.3278 128.9 8.25642 130.56 8.12335L135.864 7.69815C136.025 7.6852 136.166 7.58301 136.228 7.43344L138.272 2.52075Z" fill="url(#paint4_linear_150_189)"/>
<defs>
<linearGradient id="paint0_linear_150_189" x1="9.32043" y1="22.7884" x2="22.2929" y2="18.6342" gradientUnits="userSpaceOnUse">
<stop stop-color="#F8BEA5"/>
<stop offset="1" stop-color="#F8D2A5"/>
</linearGradient>
<linearGradient id="paint1_linear_150_189" x1="41.3204" y1="22.7884" x2="54.2929" y2="18.6342" gradientUnits="userSpaceOnUse">
<stop stop-color="#F8BEA5"/>
<stop offset="1" stop-color="#F8D2A5"/>
</linearGradient>
<linearGradient id="paint2_linear_150_189" x1="73.3204" y1="22.7884" x2="86.2929" y2="18.6342" gradientUnits="userSpaceOnUse">
<stop stop-color="#F8BEA5"/>
<stop offset="1" stop-color="#F8D2A5"/>
</linearGradient>
<linearGradient id="paint3_linear_150_189" x1="105.32" y1="22.7884" x2="118.293" y2="18.6342" gradientUnits="userSpaceOnUse">
<stop stop-color="#F8BEA5"/>
<stop offset="1" stop-color="#F8D2A5"/>
</linearGradient>
<linearGradient id="paint4_linear_150_189" x1="137.32" y1="22.7884" x2="150.293" y2="18.6342" gradientUnits="userSpaceOnUse">
<stop stop-color="#F8BEA5"/>
<stop offset="1" stop-color="#F8D2A5"/>
</linearGradient>
</defs>
</svg>
