<svg width="20" height="20" viewBox="0 0 20 20" fill="none" xmlns="http://www.w3.org/2000/svg">
<path d="M1.2793 3.60107C1.2793 3.03989 1.47571 2.57692 1.86852 2.21218C2.26133 1.84741 2.77201 1.66504 3.40051 1.66504C4.0178 1.66504 4.51723 1.8446 4.89883 2.20376C5.29164 2.57413 5.48805 3.05672 5.48805 3.65157C5.48805 4.19029 5.29726 4.63921 4.91566 4.99837C4.52285 5.36874 4.00657 5.55393 3.36684 5.55393H3.35C2.73271 5.55393 2.23329 5.36874 1.85169 4.99837C1.47009 4.628 1.2793 4.16223 1.2793 3.60107ZM1.49815 18.3317L1.49815 7.08591H5.23553L5.23553 18.3317H1.49815ZM7.30623 18.3317H11.0436V12.0522C11.0436 11.6594 11.0885 11.3564 11.1783 11.1432C11.3354 10.7616 11.5739 10.4389 11.8938 10.1751C12.2136 9.91139 12.6149 9.77952 13.0975 9.77952C14.3545 9.77952 14.983 10.6269 14.983 12.3216V18.3317H18.7204V11.8839C18.7204 10.2228 18.3276 8.96302 17.5419 8.10443C16.7563 7.24585 15.7181 6.81655 14.4274 6.81655C12.9796 6.81655 11.8517 7.43945 11.0436 8.68524V8.71891H11.0268L11.0436 8.68524V7.08591H7.30623C7.32867 7.44506 7.3399 8.56177 7.3399 10.4361C7.3399 12.3104 7.32867 14.9422 7.30623 18.3317Z" fill="#171719"/>
</svg>
