<svg width="18" height="14" viewBox="0 0 18 14" fill="none" xmlns="http://www.w3.org/2000/svg">
<path d="M16.8794 12.2402C17.2107 12.2402 17.479 12.5087 17.4792 12.84C17.4792 13.1714 17.2108 13.4406 16.8794 13.4406L8.31982 13.4406C7.98845 13.4406 7.71924 13.1714 7.71924 12.84C7.71936 12.5087 7.98853 12.2402 8.31982 12.2402L16.8794 12.2402ZM16.8794 6.43945C17.2107 6.43945 17.479 6.70796 17.4792 7.03923C17.4792 7.3706 17.2108 7.63981 16.8794 7.63981L1.1193 7.63981C0.788032 7.63969 0.519531 7.37052 0.519531 7.03923C0.519653 6.70803 0.788107 6.43957 1.1193 6.43945L16.8794 6.43945ZM16.8794 0.599609C17.2107 0.599609 17.479 0.868114 17.4792 1.19938C17.4792 1.53075 17.2108 1.79997 16.8794 1.79997L1.1193 1.79997C0.788032 1.79985 0.519531 1.53068 0.519531 1.19938C0.519653 0.868186 0.788107 0.599727 1.1193 0.599609L16.8794 0.599609Z" fill="#171719"/>
</svg>
