<svg width="32" height="32" viewBox="0 0 32 32" fill="none" xmlns="http://www.w3.org/2000/svg">
<path d="M17.2902 5.44043C19.6245 5.44041 21.4699 5.44059 22.9125 5.62403C24.3912 5.81209 25.5925 6.20752 26.5453 7.10842C27.64 8.14371 28.0422 9.50793 28.2067 11.2309C28.9881 11.5547 29.5824 12.2691 29.6468 13.1788C29.6524 13.2575 29.6534 13.3431 29.6533 13.4236V18.5786C29.6534 18.6588 29.6524 18.7437 29.6468 18.8221C29.5825 19.7318 28.9881 20.4459 28.2067 20.77C28.0426 22.493 27.64 23.8571 26.5453 24.8924C25.5925 25.7934 24.3913 26.1888 22.9125 26.3768C21.4699 26.5603 19.6245 26.5604 17.2902 26.5604H13.3462C11.0122 26.5604 9.16774 26.5603 7.7252 26.3768C6.24612 26.1887 5.04411 25.7937 4.09113 24.8924C3.1307 23.984 2.70239 22.8264 2.5 21.4028C2.30458 20.0282 2.30466 18.2747 2.30469 16.076V15.9249C2.30466 13.7263 2.30458 11.9726 2.5 10.598C2.70241 9.17453 3.13067 8.01678 4.09113 7.10842C5.04411 6.20713 6.24611 5.81211 7.7252 5.62403C9.16774 5.4406 11.0122 5.44041 13.3462 5.44043H17.2902ZM13.4152 7.36102C10.9971 7.36102 9.27478 7.36275 7.96739 7.52899C6.68249 7.69239 5.94494 7.99974 5.41143 8.50426C4.88545 9.0017 4.57026 9.67833 4.40102 10.8689C4.22706 12.0927 4.22524 13.7092 4.22524 16.0004C4.22524 18.2916 4.22708 19.9081 4.40102 21.132C4.57026 22.3225 4.88546 22.9992 5.41143 23.4966C5.94496 24.0012 6.68233 24.3098 7.96739 24.4732C9.27478 24.6394 10.9971 24.6411 13.4152 24.6411H17.2225C19.6405 24.6411 21.363 24.6394 22.6704 24.4732C23.9552 24.3098 24.6928 24.0012 25.2263 23.4966C25.7796 22.9733 26.0915 22.2554 26.2536 20.9614H23.6677C20.8269 20.9613 18.3997 18.8053 18.3996 16.0004C18.3998 13.1956 20.827 11.0409 23.6677 11.0407H26.2576C26.0948 9.74596 25.7798 9.02772 25.2263 8.50426C24.6928 7.99972 23.9552 7.6924 22.6704 7.52899C21.363 7.36276 19.6405 7.36102 17.2225 7.36102H13.4152ZM23.6677 12.9613C21.7509 12.9615 20.3203 14.3875 20.3201 16.0004C20.3203 17.6135 21.7509 19.0407 23.6677 19.0408H27.1378C27.2614 19.0408 27.2822 19.0402 27.2927 19.0395C27.5854 19.0216 27.7211 18.8215 27.7315 18.688C27.7316 18.6857 27.7326 18.6787 27.7328 18.6658V13.335C27.7326 13.322 27.7316 13.3151 27.7315 13.3129C27.7211 13.1793 27.5853 12.9792 27.2927 12.9613H23.6677Z" fill="#171719"/>
</svg>
