<svg width="18" height="18" viewBox="0 0 18 18" fill="none" xmlns="http://www.w3.org/2000/svg">
<path d="M9.41512 1.72742C12.7162 1.72742 15.0251 4.51568 15.0251 7.83057C15.025 9.11439 14.4737 10.4278 13.7218 11.6524C12.9652 12.8847 11.9722 14.0804 11.0179 15.1366L10.9943 15.1622C10.7329 15.4517 10.5006 15.709 10.2839 15.8885C10.0467 16.0851 9.76954 16.2395 9.4165 16.2393C9.06318 16.239 8.78617 16.0836 8.54907 15.8865C8.33248 15.7064 8.10014 15.449 7.83866 15.1588L7.81584 15.1325C6.86854 14.081 5.87427 12.8872 5.11532 11.6552C4.36129 10.4311 3.80526 9.1158 3.80518 7.83057C3.80518 4.5157 6.11404 1.72745 9.41512 1.72742ZM9.41512 2.74772C6.78251 2.74775 4.82548 4.96779 4.82548 7.83057C4.82557 8.83793 5.2682 9.95933 5.98344 11.1204C6.69383 12.2737 7.63966 13.4135 8.57328 14.4497C8.86522 14.7738 9.04843 14.9749 9.20137 15.1021C9.34011 15.2173 9.3926 15.2189 9.41719 15.219C9.44197 15.219 9.49446 15.2175 9.63302 15.1027C9.78588 14.9761 9.96913 14.7757 10.2611 14.4525C11.2007 13.4127 12.1452 12.2718 12.853 11.1191C13.5655 9.95862 14.0054 8.83818 14.0055 7.83057C14.0055 4.96777 12.0478 2.74772 9.41512 2.74772ZM9.41512 4.44661C11.0112 4.44661 12.3051 5.74061 12.3052 7.33667C12.3052 8.93277 11.0112 10.2267 9.41512 10.2267C7.81912 10.2266 6.52506 8.9327 6.52506 7.33667C6.52511 5.74068 7.81915 4.44673 9.41512 4.44661ZM9.41512 5.46692C8.38248 5.46704 7.54541 6.30401 7.54537 7.33667C7.54537 8.36937 8.38245 9.2063 9.41512 9.20642C10.4479 9.20642 11.2856 8.36944 11.2856 7.33667C11.2855 6.30394 10.4479 5.46692 9.41512 5.46692Z" fill="#171719"/>
</svg>
