<svg width="54" height="54" viewBox="0 0 54 54" fill="none" xmlns="http://www.w3.org/2000/svg">
<path d="M0 16C0 7.16345 7.16344 0 16 0L38 0C46.8366 0 54 7.16344 54 16V38C54 46.8366 46.8366 54 38 54H16C7.16345 54 0 46.8366 0 38L0 16Z" fill="url(#paint0_linear_211_7558)"/>
<path d="M36.9993 16.1016C38.8712 16.1016 40.4 17.6293 40.4001 19.5012V34.5012C40.4001 36.3733 38.8713 37.9021 36.9993 37.9021H16.9993C15.1274 37.9019 13.5996 36.3732 13.5996 34.5012L13.5996 19.5012C13.5998 17.6294 15.1275 16.1017 16.9993 16.1016H36.9993ZM16.9993 17.9021C16.1216 17.9023 15.4003 18.6235 15.4001 19.5012L15.4001 34.5012C15.4001 35.3791 16.1215 36.1014 16.9993 36.1016H36.9993C37.8772 36.1016 38.5996 35.3792 38.5996 34.5012V19.5012C38.5994 18.6234 37.8771 17.9021 36.9993 17.9021H16.9993ZM34.2832 20.4131C34.6903 20.1282 35.2506 20.2271 35.5356 20.634C35.8207 21.0412 35.7219 21.6027 35.3147 21.8877L27.5144 27.3479C27.2047 27.5643 26.7925 27.5644 26.4829 27.3479L18.6826 21.8877C18.2754 21.6027 18.1766 21.0412 18.4617 20.634C18.7467 20.2268 19.3081 20.128 19.7153 20.4131L26.9993 25.512L34.2832 20.4131Z" fill="#171719"/>
<defs>
<linearGradient id="paint0_linear_211_7558" x1="20.52" y1="54" x2="52.1261" y2="44.2906" gradientUnits="userSpaceOnUse">
<stop stop-color="#F8BEA5"/>
<stop offset="1" stop-color="#F8D2A5"/>
</linearGradient>
</defs>
</svg>
