<svg width="84" height="36" viewBox="0 0 84 36" fill="none" xmlns="http://www.w3.org/2000/svg">
<path d="M47.2309 13.5273C47.2309 13.5273 47.2142 22.8991 47.2309 24.1895C47.2477 24.9026 47.2979 25.6497 47.4319 26.3627C47.6163 27.3644 47.9851 28.3153 48.6723 29.0454L48.826 29.2152H45.0855V27.008C45.0352 27.0589 45.0018 27.1099 44.9683 27.1438C43.1917 28.9944 40.2752 30.2167 37.7947 29.0792C36.5712 28.5189 35.8674 27.3305 35.6327 26.0402C35.3645 24.5801 35.3477 23.086 35.3477 21.6428C35.3477 21.2522 35.2806 19.0452 35.1968 18.3321C35.046 17.2285 34.7108 15.8872 33.9231 15.1572L33.7891 15.0385C33.7941 15.0369 34.8136 14.715 35.6663 14.3763C36.9191 13.8686 37.4893 13.5296 37.493 13.5273C37.493 13.5273 37.493 21.1159 37.493 21.6088C37.493 22.8992 37.4596 24.2405 37.7613 25.4969C37.9792 26.3967 38.4317 27.3815 39.2697 27.8229C40.1245 28.2813 41.1301 28.2473 42.0519 28.0605C43.0408 27.8568 43.9794 27.3136 44.8845 26.3798L45.0688 26.1929C45.0693 26.1713 45.2024 20.8744 44.9683 18.7057C44.851 17.5342 44.5491 15.9721 43.6608 15.1572L43.5268 15.0385C43.5268 15.0385 44.5492 14.7158 45.404 14.3763C46.661 13.8669 47.2309 13.5273 47.2309 13.5273ZM26.4145 13.5443C28.476 13.5612 30.5041 14.3933 31.979 15.8874C33.4706 17.3984 34.2919 18.9773 34.2919 21.524C34.2919 24.0707 33.0683 26.4816 31.0403 27.9756C30.5542 28.3322 30.0347 28.6378 29.4816 28.8925C27.6044 29.7244 25.3417 29.6904 23.4646 28.9094C20.5148 27.704 18.5371 24.7328 18.5371 21.524C18.5371 19.9111 19.0064 18.3661 19.8946 17.0418C20.9505 15.3271 22.6098 14.1724 24.7049 13.714C25.258 13.5952 25.8278 13.5443 26.3976 13.5443H26.4145ZM56.0301 15.6665C58.5442 13.3066 62.5834 12.6445 65.3656 14.9365C66.7399 16.057 67.4272 17.8737 67.4272 19.6395V19.9281H55.9463C55.7285 22.0164 56.1306 23.6123 57.2368 24.9536C59.8011 28.0605 64.9467 27.6871 67.3434 24.5462C68.0473 23.6294 68.3154 22.5936 68.4998 21.3033C68.8517 18.8924 69.4887 17.2625 70.5948 16.0741C71.9692 14.563 73.9134 13.6971 75.9246 13.5443C77.6509 13.4084 79.545 14.0198 80.7517 15.2082C81.9584 16.3967 82.4109 17.9587 82.3774 19.6225V19.911H70.8965V20.1148C70.863 20.5223 70.8463 20.9299 70.8631 21.3204C70.9469 23.0181 71.634 24.5461 72.8072 25.5987C75.5392 28.0775 79.964 27.3136 82.2602 24.6311C82.5619 24.2745 82.8467 23.901 83.1149 23.5444H83.0813L83.8691 22.4239C83.8691 22.4239 84.2042 20.1998 83.802 22.9333C83.3997 25.6667 81.3717 28.0606 78.8577 29.0114C74.7849 30.5394 70.2764 28.2982 68.9021 24.1556L68.7512 23.7142L68.6004 24.1556C68.3658 24.8177 68.0808 25.429 67.7456 25.9893C65.4494 29.7414 60.1196 30.5563 56.667 28.0096C52.7618 25.1233 52.5105 18.9772 56.0301 15.6665ZM48.8566 29.249L48.826 29.2152H48.8901L48.8566 29.249ZM8.43061 6.48145C10.0228 6.5154 11.2798 6.70221 12.4027 7.10967C13.0731 7.36434 13.8945 7.73782 14.4308 8.51881C15.3023 9.79217 15.2185 11.3033 14.2296 12.4578C13.8274 12.9332 12.0508 14.4442 12.0508 14.4442L12.3358 14.546L12.3524 14.58C15.2017 15.6157 16.928 17.6021 17.4644 20.4544C18.0342 23.4255 16.861 26.0401 14.2463 27.6361C12.6038 28.6378 10.7603 29.1642 8.76582 29.2152C8.11216 29.2321 0 29.2321 0 29.2321L0.268265 28.7736C1.4247 26.8551 1.54202 24.665 1.57554 22.7635C1.60906 19.4867 1.5923 16.2608 1.57554 12.9671C1.55878 10.9297 1.30734 9.40161 0.787771 8.02638C0.754011 7.90706 0.083802 6.48145 0.083802 6.48145H8.43061ZM52.041 12.5427H54.572V13.3236H52.041V23.7142C52.1248 25.7346 52.8456 28.0945 54.6389 28.9774L55.0748 29.2152H54.421C53.3316 29.2152 51.9572 28.8924 51.203 27.9756C50.5662 27.2116 50.1975 26.2608 50.0466 25.0894C49.9293 24.1216 49.8622 23.1539 49.8622 22.2541V13.2896H47.6833C47.6833 13.2896 49.1415 12.4917 50.3148 11.3711C51.6024 10.1345 52.0391 8.86408 52.041 8.85838V12.5427ZM28.7945 16.0061C26.9006 14.1725 23.6658 13.85 22.0903 16.2947C21.0512 17.9077 20.7662 19.7584 21.2188 21.9146C21.7886 24.5971 23.0121 26.5325 24.9899 27.8058C27.2022 29.232 29.9676 28.5019 31.0905 26.108C31.5431 25.1403 31.7611 24.0877 31.7778 22.6106V22.5937C31.6773 20.081 30.6381 17.8058 28.7945 16.0061ZM11.2799 14.9705C11.2799 14.9705 10.3747 15.6326 10.2238 15.7345L9.21822 16.4985C7.35783 17.9586 6.01708 19.5377 5.12878 21.3204C3.98909 23.5954 3.97232 25.9553 5.04498 28.3492L5.09523 28.4511V28.4341H7.82714C8.34671 28.4341 8.95018 28.3662 9.68764 28.2134C12.0173 27.7719 13.5592 26.4306 14.2799 24.2404C14.9335 22.271 14.8666 20.3015 14.0956 18.383C13.5257 16.9908 12.6374 15.8703 11.4475 15.0554L11.2799 14.9705ZM7.35788 7.26237C6.87183 7.26237 6.36895 7.29643 5.86614 7.36434C4.59239 7.55111 3.85502 8.31517 3.7377 9.60548L3.75439 9.6393C3.6706 10.5561 2.5981 24.1372 2.56447 24.58L2.76547 24.0877C4.24038 20.4884 6.10092 17.9077 9.18483 15.1743C9.5368 14.8517 10.1904 14.1725 10.5759 13.748C11.3301 12.8822 11.7658 12.1351 12.0172 11.3371C12.5368 9.65632 11.8664 8.31515 10.2407 7.73789C9.33564 7.41531 8.38026 7.26237 7.35788 7.26237ZM61.3935 14.3423C61.0583 14.3423 60.6895 14.3763 60.3207 14.4442C58.3095 14.8178 56.7172 16.4815 56.1809 18.7906L56.1306 18.9772V18.9943H60.79C61.5442 18.9943 62.4996 18.9264 63.3879 18.5359C64.0583 18.2303 64.5108 17.6361 64.5946 16.957C64.6952 16.2778 64.4102 15.6327 63.8571 15.1743C63.17 14.631 62.332 14.3423 61.3935 14.3423ZM76.2264 14.3254C74.9191 14.3254 73.6956 14.8346 72.757 15.7854C71.986 16.5664 71.4663 17.5342 71.1479 18.7397L71.0976 18.9434H76.3605C77.0644 18.9434 77.7516 18.7905 78.3717 18.5019C78.9248 18.2472 79.2767 17.8567 79.4443 17.3643C79.7962 16.2947 79.2768 15.2251 78.1539 14.7327C77.5505 14.4611 77.5337 14.3254 76.2264 14.3254Z" fill="#171719"/>
</svg>
