<svg width="70" height="30" viewBox="0 0 70 30" fill="none" xmlns="http://www.w3.org/2000/svg">
<path d="M39.3591 11.2727C39.3591 11.2727 39.3451 19.0825 39.3591 20.1579C39.3731 20.7521 39.4149 21.3746 39.5266 21.9688C39.6802 22.8036 39.9876 23.596 40.5602 24.2044L40.6883 24.3459H37.5712V22.5066C37.5294 22.549 37.5015 22.5915 37.4736 22.6198C35.9931 24.1619 33.5627 25.1805 31.4956 24.2326C30.476 23.7657 29.8895 22.7753 29.6939 21.7001C29.4704 20.4833 29.4565 19.2382 29.4565 18.0356C29.4565 17.7101 29.4005 15.8709 29.3307 15.2767C29.205 14.357 28.9257 13.2393 28.2693 12.6309L28.1576 12.532C28.1618 12.5306 29.0113 12.2624 29.7219 11.9801C30.7659 11.5571 31.241 11.2746 31.2442 11.2727C31.2442 11.2727 31.2442 17.5965 31.2442 18.0073C31.2442 19.0826 31.2164 20.2003 31.4678 21.2473C31.6493 21.9972 32.0264 22.8178 32.7248 23.1857C33.4371 23.5677 34.2751 23.5393 35.0433 23.3837C35.8673 23.2139 36.6495 22.7612 37.4037 21.9831L37.5573 21.8274C37.5578 21.8094 37.6687 17.3953 37.4736 15.588C37.3758 14.6117 37.1243 13.31 36.384 12.6309L36.2723 12.532C36.2723 12.532 37.1243 12.2631 37.8367 11.9801C38.8842 11.5557 39.3591 11.2727 39.3591 11.2727ZM22.0121 11.2868C23.73 11.301 25.4201 11.9943 26.6491 13.2394C27.8922 14.4986 28.5765 15.8144 28.5766 17.9365C28.5766 20.0588 27.5569 22.0679 25.8669 23.3129C25.4619 23.6101 25.0289 23.8648 24.568 24.077C23.0037 24.7703 21.1181 24.7419 19.5538 24.0911C17.0956 23.0865 15.4476 20.6106 15.4476 17.9365C15.4476 16.5925 15.8386 15.305 16.5789 14.2015C17.4588 12.7725 18.8415 11.8103 20.5874 11.4283C21.0483 11.3293 21.5232 11.2868 21.998 11.2868H22.0121ZM46.6918 13.0554C48.7868 11.0888 52.1528 10.537 54.4713 12.447C55.6166 13.3808 56.1893 14.8947 56.1893 16.3661V16.6067H46.6219C46.4404 18.3469 46.7755 19.6768 47.6973 20.7946C49.8342 23.3837 54.1222 23.0725 56.1195 20.4551C56.7061 19.6911 56.9295 18.8279 57.0831 17.7526C57.3765 15.7436 57.9072 14.3854 58.829 13.395C59.9743 12.1358 61.5945 11.4141 63.2705 11.2868C64.7091 11.1736 66.2875 11.6831 67.2931 12.6735C68.2987 13.6638 68.6757 14.9655 68.6478 16.352V16.5925H59.0804V16.7623C59.0525 17.1018 59.0386 17.4415 59.0526 17.7669C59.1224 19.1817 59.695 20.455 60.6727 21.3322C62.9493 23.3978 66.6367 22.7613 68.5501 20.5258C68.8015 20.2287 69.0389 19.9174 69.2624 19.6203H69.2344L69.8909 18.6865C69.8909 18.6865 70.1702 16.8331 69.835 19.111C69.4998 21.3888 67.8098 23.3838 65.7147 24.1761C62.3208 25.4494 58.5637 23.5817 57.4184 20.1295L57.2927 19.7617L57.167 20.1295C56.9715 20.6813 56.734 21.1908 56.4546 21.6577C54.5411 24.7844 50.0997 25.4635 47.2225 23.3413C43.9682 20.936 43.7587 15.8143 46.6918 13.0554ZM40.7138 24.3741L40.6883 24.3459H40.7418L40.7138 24.3741ZM7.02551 5.40112C8.35233 5.42942 9.39981 5.58509 10.3356 5.92464C10.8943 6.13687 11.5787 6.4481 12.0257 7.09893C12.7519 8.16006 12.6821 9.4193 11.858 10.3814C11.5228 10.7776 10.0423 12.0368 10.0423 12.0368L10.2798 12.1216L10.2937 12.1499C12.6681 13.013 14.1067 14.6683 14.5536 17.0452C15.0285 19.5212 14.0508 21.7 11.8719 23.03C10.5032 23.8647 8.9669 24.3034 7.30485 24.3459C6.76014 24.36 0 24.36 0 24.36L0.223554 23.9779C1.18725 22.3792 1.28502 20.5541 1.31295 18.9695C1.34089 16.2389 1.32692 13.5506 1.31295 10.8058C1.29899 9.10803 1.08945 7.83459 0.656476 6.68857C0.628343 6.58913 0.069835 5.40112 0.069835 5.40112H7.02551ZM43.3675 10.4521H45.4766V11.1029H43.3675V19.7617C43.4374 21.4454 44.038 23.412 45.5324 24.1478L45.8956 24.3459H45.3509C44.443 24.3459 43.2977 24.0769 42.6692 23.3129C42.1385 22.6763 41.8312 21.8839 41.7055 20.9077C41.6078 20.1013 41.5518 19.2949 41.5518 18.545V11.0746H39.7361C39.7361 11.0746 40.9513 10.4096 41.929 9.47583C43.002 8.44532 43.3659 7.38665 43.3675 7.3819V10.4521ZM23.9954 13.3383C22.4172 11.8103 19.7215 11.5416 18.4086 13.5789C17.5427 14.923 17.3052 16.4652 17.6823 18.2621C18.1572 20.4975 19.1768 22.1103 20.8249 23.1715C22.6685 24.3599 24.973 23.7515 25.9088 21.7566C26.2859 20.9502 26.4675 20.073 26.4815 18.8421V18.828C26.3977 16.734 25.5318 14.838 23.9954 13.3383ZM9.3999 12.4753C9.3999 12.4753 8.64557 13.0271 8.51987 13.112L7.68185 13.7487C6.13153 14.9654 5.01423 16.2813 4.27398 17.7669C3.32424 19.6628 3.31027 21.6293 4.20415 23.6242L4.24602 23.7092V23.695H6.52262C6.95559 23.695 7.45849 23.6384 8.07303 23.5111C10.0144 23.1432 11.2993 22.0254 11.8999 20.2003C12.4446 18.5591 12.3888 16.9178 11.7463 15.3191C11.2715 14.159 10.5312 13.2252 9.53957 12.5461L9.3999 12.4753ZM6.13157 6.05189C5.72652 6.05189 5.30746 6.08027 4.88845 6.13687C3.82699 6.29251 3.21252 6.92922 3.11475 8.00448L3.12866 8.03267C3.05883 8.79664 2.16509 20.1142 2.13706 20.4833L2.30455 20.073C3.53365 17.0736 5.0841 14.923 7.65402 12.6451C7.94734 12.3763 8.49202 11.8103 8.81326 11.4566C9.44176 10.7351 9.80486 10.1125 10.0144 9.44751C10.4473 8.04685 9.88867 6.92921 8.53392 6.44816C7.7797 6.17934 6.98355 6.05189 6.13157 6.05189ZM51.1612 11.9518C50.8819 11.9518 50.5746 11.9802 50.2673 12.0368C48.5912 12.348 47.2644 13.7345 46.8174 15.6587L46.7755 15.8143V15.8285H50.6583C51.2868 15.8285 52.083 15.7719 52.8232 15.4465C53.3819 15.1918 53.759 14.6966 53.8289 14.1307C53.9127 13.5648 53.6752 13.0271 53.2143 12.6451C52.6416 12.1924 51.9433 11.9518 51.1612 11.9518ZM63.522 11.9377C62.4326 11.9377 61.413 12.3621 60.6308 13.1544C59.9883 13.8052 59.5553 14.6118 59.2899 15.6163L59.248 15.7861H63.6337C64.2203 15.7861 64.793 15.6587 65.3098 15.4182C65.7707 15.2059 66.0639 14.8805 66.2036 14.4702C66.4969 13.5789 66.064 12.6875 65.1282 12.2772C64.6254 12.0508 64.6114 11.9377 63.522 11.9377Z" fill="#171719"/>
</svg>
